<?xml version="1.0" encoding="UTF-8" standalone="no"?>
<!DOCTYPE svg PUBLIC "-//W3C//DTD SVG 1.1//EN" "http://www.w3.org/Graphics/SVG/1.1/DTD/svg11.dtd">
<svg width="100%" height="100%" viewBox="0 0 200 200" version="1.1" xmlns="http://www.w3.org/2000/svg" xmlns:xlink="http://www.w3.org/1999/xlink" xml:space="preserve" xmlns:serif="http://www.serif.com/" style="fill-rule:evenodd;clip-rule:evenodd;stroke-linejoin:round;stroke-miterlimit:2;">
    <g transform="matrix(1,0,0,1,-3730.41,-1678.69)">
        <g id="画板2" transform="matrix(0.307342,0,0,0.307342,2725.59,828.25)">
            <rect x="3269.38" y="2767.09" width="648.232" height="648.232" style="fill:none;"/>
            <g transform="matrix(11.582,0,0,11.582,-38279.4,-18163.7)">
                <path d="M3612.55,1863.03C3592.59,1861.17 3591.16,1843.28 3591.16,1843.28C3591.11,1842.51 3591.38,1841.76 3591.91,1841.19C3592.44,1840.63 3593.18,1840.31 3593.95,1840.31C3593.95,1840.31 3600.53,1840.31 3604.42,1840.31C3605.96,1840.31 3607.21,1841.56 3607.21,1843.11C3607.21,1843.11 3607.21,1843.11 3607.21,1843.11C3607.21,1843.85 3606.92,1844.56 3606.39,1845.08C3605.87,1845.61 3605.16,1845.9 3604.42,1845.9C3602.04,1845.9 3598.78,1845.9 3597.21,1845.9C3598.27,1850.65 3601.61,1855.77 3612.05,1857.33L3612.05,1834.58L3606.58,1834.58C3605.83,1834.58 3605.11,1834.28 3604.58,1833.75C3604.06,1833.23 3603.76,1832.51 3603.76,1831.76C3603.76,1831.67 3603.76,1831.59 3603.76,1831.5C3603.76,1830.76 3604.06,1830.04 3604.58,1829.51C3605.11,1828.98 3605.83,1828.68 3606.58,1828.68C3608.98,1828.68 3612.05,1828.68 3612.05,1828.68L3612.05,1828.49C3607.7,1827.09 3604.56,1823.02 3604.56,1818.21C3604.56,1812.26 3609.39,1807.42 3615.35,1807.42C3621.3,1807.42 3626.14,1812.26 3626.14,1818.21C3626.14,1823.02 3622.99,1827.09 3618.65,1828.49L3618.65,1828.68C3618.65,1828.68 3621.71,1828.68 3624.12,1828.68C3624.86,1828.68 3625.58,1828.98 3626.11,1829.51C3626.64,1830.04 3626.93,1830.76 3626.93,1831.5C3626.93,1831.59 3626.93,1831.67 3626.93,1831.76C3626.93,1832.51 3626.64,1833.23 3626.11,1833.75C3625.58,1834.28 3624.86,1834.58 3624.12,1834.58C3621.71,1834.58 3618.65,1834.58 3618.65,1834.58L3618.65,1857.33C3629.08,1855.77 3632.43,1850.65 3633.49,1845.9C3633.49,1845.9 3629.24,1845.9 3626.28,1845.9C3625.53,1845.9 3624.83,1845.61 3624.3,1845.08C3623.78,1844.56 3623.48,1843.85 3623.48,1843.11C3623.48,1843.11 3623.48,1843.11 3623.48,1843.11C3623.48,1841.56 3624.73,1840.31 3626.28,1840.31C3630.17,1840.31 3636.74,1840.31 3636.74,1840.31C3637.52,1840.31 3638.25,1840.63 3638.78,1841.19C3639.31,1841.76 3639.58,1842.51 3639.53,1843.28C3639.53,1843.28 3638.11,1861.17 3618.14,1863.03L3618.14,1863.15L3612.55,1863.15L3612.55,1863.03ZM3615.35,1814.19C3613.13,1814.19 3611.32,1815.99 3611.32,1818.21C3611.32,1820.43 3613.13,1822.24 3615.35,1822.24C3617.57,1822.24 3619.37,1820.43 3619.37,1818.21C3619.37,1815.99 3617.57,1814.19 3615.35,1814.19Z" style="fill:white;"/>
            </g>
        </g>
    </g>
</svg>
