<?xml version="1.0" encoding="UTF-8" standalone="no"?>
<!DOCTYPE svg PUBLIC "-//W3C//DTD SVG 1.1//EN" "http://www.w3.org/Graphics/SVG/1.1/DTD/svg11.dtd">
<svg width="100%" height="100%" viewBox="0 0 200 200" version="1.1" xmlns="http://www.w3.org/2000/svg" xmlns:xlink="http://www.w3.org/1999/xlink" xml:space="preserve" xmlns:serif="http://www.serif.com/" style="fill-rule:evenodd;clip-rule:evenodd;stroke-linejoin:round;stroke-miterlimit:2;">
    <g transform="matrix(1,0,0,1,-3730.41,-1678.69)">
        <g id="画板2" transform="matrix(0.307342,0,0,0.307342,2725.59,828.25)">
            <rect x="3269.38" y="2767.09" width="648.232" height="648.232" style="fill:none;"/>
            <g transform="matrix(18.4574,0,0,18.4574,-26678.5,-47118.1)">
                <path d="M1627.42,2736.48L1627.42,2711.13L1635.88,2719.58L1640.1,2711.13L1644.33,2719.58L1652.78,2711.13L1652.78,2736.48L1627.42,2736.48Z" style="fill:white;"/>
            </g>
            <g transform="matrix(3.70288,0,0,3.70288,-10559.2,-3473.19)">
                <circle cx="3758.89" cy="1705.75" r="13.719" style="fill:white;"/>
            </g>
            <g transform="matrix(3.70288,0,0,3.70288,-10325.2,-3473.19)">
                <circle cx="3758.89" cy="1705.75" r="13.719" style="fill:white;"/>
            </g>
            <g transform="matrix(3.70288,0,0,3.70288,-10091.3,-3473.19)">
                <circle cx="3758.89" cy="1705.75" r="13.719" style="fill:white;"/>
            </g>
        </g>
    </g>
</svg>
