<?xml version="1.0" encoding="UTF-8" standalone="no"?>
<!DOCTYPE svg PUBLIC "-//W3C//DTD SVG 1.1//EN" "http://www.w3.org/Graphics/SVG/1.1/DTD/svg11.dtd">
<svg width="100%" height="100%" viewBox="0 0 800 800" version="1.1" xmlns="http://www.w3.org/2000/svg" xmlns:xlink="http://www.w3.org/1999/xlink" xml:space="preserve" xmlns:serif="http://www.serif.com/" style="fill-rule:evenodd;clip-rule:evenodd;stroke-linejoin:round;stroke-miterlimit:2;">
    <g transform="matrix(0.905499,0,0,0.905499,34.5523,37.8021)">
        <path d="M757.697,189.02L48.519,189.02C28.183,188.573 11.878,173.953 11.878,155.968L11.878,155.101L11.878,155.153L11.878,86.867C11.878,68.882 28.183,54.263 48.459,53.816L757.697,53.816C778.034,54.21 794.339,68.803 794.339,86.762L794.339,87.656L794.339,87.604L794.339,155.153C794.339,155.469 794.369,155.81 794.369,156.179C794.369,174.111 778.064,188.704 757.787,189.046L757.757,189.046L757.697,189.02ZM772.431,729.662L772.431,281.169C772.431,259.415 754.8,241.785 733.046,241.785L73.354,241.785C51.6,241.785 33.969,259.415 33.969,281.169L33.969,729.846C33.969,751.6 51.6,769.231 73.354,769.231L732.862,769.231C754.708,769.231 772.4,751.508 772.431,729.662ZM534.895,466.901L271.564,466.901C254.92,466.759 241.444,453.283 241.302,436.638L241.302,416.069C241.444,399.425 254.92,385.949 271.564,385.807L534.989,385.807C551.634,385.949 565.11,399.425 565.252,416.069L565.252,436.402C565.252,453.188 551.681,466.806 534.895,466.901Z" style="fill:white;fill-rule:nonzero;"/>
    </g>
</svg>
