<?xml version="1.0" encoding="UTF-8" standalone="no"?>
<!DOCTYPE svg PUBLIC "-//W3C//DTD SVG 1.1//EN" "http://www.w3.org/Graphics/SVG/1.1/DTD/svg11.dtd">
<svg width="100%" height="100%" viewBox="0 0 501 501" version="1.1" xmlns="http://www.w3.org/2000/svg" xmlns:xlink="http://www.w3.org/1999/xlink" xml:space="preserve" xmlns:serif="http://www.serif.com/" style="fill-rule:evenodd;clip-rule:evenodd;stroke-linejoin:round;stroke-miterlimit:2;">
    <g transform="matrix(1,0,0,1,-3268.03,-3476.62)">
        <g transform="matrix(0.772684,0,0,0.772684,741.829,1338.53)">
            <rect id="画板2" x="3269.38" y="2767.09" width="648.232" height="648.232" style="fill:none;"/>
            <clipPath id="_clip1">
                <rect id="画板21" serif:id="画板2" x="3269.38" y="2767.09" width="648.232" height="648.232"/>
            </clipPath>
            <g clip-path="url(#_clip1)">
                <g transform="matrix(-1.29419,-1.58493e-16,1.58493e-16,-1.29419,8147.07,7914.73)">
                    <path d="M3518.47,3476.62C3656.69,3476.62 3768.91,3588.84 3768.91,3727.06C3768.91,3865.28 3656.69,3977.49 3518.47,3977.49C3380.25,3977.49 3268.03,3865.28 3268.03,3727.06C3268.03,3588.84 3380.25,3476.62 3518.47,3476.62ZM3549.11,3880.27L3549.11,3691.16L3628.35,3770.39L3671.68,3727.06L3518.47,3573.84L3365.25,3727.06L3408.59,3770.39L3487.83,3691.16L3487.83,3880.27L3549.11,3880.27Z" style="fill:#923124;"/>
                </g>
            </g>
        </g>
    </g>
</svg>
