<?xml version="1.0" encoding="UTF-8" standalone="no"?>
<!DOCTYPE svg PUBLIC "-//W3C//DTD SVG 1.1//EN" "http://www.w3.org/Graphics/SVG/1.1/DTD/svg11.dtd">
<svg width="100%" height="100%" viewBox="0 0 200 200" version="1.1" xmlns="http://www.w3.org/2000/svg" xmlns:xlink="http://www.w3.org/1999/xlink" xml:space="preserve" xmlns:serif="http://www.serif.com/" style="fill-rule:evenodd;clip-rule:evenodd;stroke-linejoin:round;stroke-miterlimit:2;">
    <g transform="matrix(1,0,0,1,-3481,-1678.69)">
        <g id="画板2" transform="matrix(0.307342,0,0,0.307342,2476.18,828.25)">
            <rect x="3269.38" y="2767.09" width="648.232" height="648.232" style="fill:none;"/>
            <clipPath id="_clip1">
                <rect x="3269.38" y="2767.09" width="648.232" height="648.232"/>
            </clipPath>
            <g clip-path="url(#_clip1)">
                <g transform="matrix(16.2012,0,0,16.2012,-55104.1,-25564.7)">
                    <path d="M3608.54,1750.4L3608.54,1787.29L3603.04,1787.29L3603.04,1750.4L3608.54,1750.4ZM3643.05,1750.4L3643.05,1787.29L3637.56,1787.29L3637.56,1750.4L3643.05,1750.4ZM3615.8,1771.03L3615.8,1775.1L3609.55,1768.84L3615.8,1762.58L3615.8,1766.65L3630.41,1766.65L3630.41,1762.58L3636.66,1768.84L3630.41,1775.1L3630.41,1771.03L3615.8,1771.03Z" style="fill:white;"/>
                </g>
            </g>
        </g>
    </g>
</svg>
