<?xml version="1.0" encoding="UTF-8" standalone="no"?>
<!DOCTYPE svg PUBLIC "-//W3C//DTD SVG 1.1//EN" "http://www.w3.org/Graphics/SVG/1.1/DTD/svg11.dtd">
<svg width="100%" height="100%" viewBox="0 0 200 200" version="1.1" xmlns="http://www.w3.org/2000/svg" xmlns:xlink="http://www.w3.org/1999/xlink" xml:space="preserve" xmlns:serif="http://www.serif.com/" style="fill-rule:evenodd;clip-rule:evenodd;stroke-linejoin:round;stroke-miterlimit:2;">
    <g transform="matrix(1,0,0,1,-2145.32,-1678.69)">
        <g transform="matrix(0.307342,0,0,0.307342,1140.5,828.25)">
            <rect id="画板2" x="3269.38" y="2767.09" width="648.232" height="648.232" style="fill:none;"/>
            <clipPath id="_clip1">
                <rect id="画板21" serif:id="画板2" x="3269.38" y="2767.09" width="648.232" height="648.232"/>
            </clipPath>
            <g clip-path="url(#_clip1)">
                <g transform="matrix(7.44105,0,0,7.44105,-67.3926,-29075.1)">
                    <path d="M491.986,4279.26C516.026,4279.26 535.544,4298.77 535.544,4322.81C535.544,4346.85 516.026,4366.37 491.986,4366.37C467.946,4366.37 448.428,4346.85 448.428,4322.81C448.428,4298.77 467.946,4279.26 491.986,4279.26ZM491.986,4294.1L484.858,4316.03L461.791,4316.03L480.452,4329.59L473.324,4351.53L491.986,4337.97L510.648,4351.53L503.519,4329.59L522.181,4316.03L499.114,4316.03L491.986,4294.1Z" style="fill:white;"/>
                </g>
            </g>
        </g>
    </g>
</svg>
