<?xml version="1.0" encoding="UTF-8" standalone="no"?>
<!DOCTYPE svg PUBLIC "-//W3C//DTD SVG 1.1//EN" "http://www.w3.org/Graphics/SVG/1.1/DTD/svg11.dtd">
<svg width="100%" height="100%" viewBox="0 0 200 200" version="1.1" xmlns="http://www.w3.org/2000/svg" xmlns:xlink="http://www.w3.org/1999/xlink" xml:space="preserve" xmlns:serif="http://www.serif.com/" style="fill-rule:evenodd;clip-rule:evenodd;stroke-linejoin:round;stroke-miterlimit:2;">
    <g transform="matrix(1,0,0,1,-3481,-1678.69)">
        <g id="画板2" transform="matrix(0.307342,0,0,0.307342,2476.18,828.25)">
            <rect x="3269.38" y="2767.09" width="648.232" height="648.232" style="fill:none;"/>
            <clipPath id="_clip1">
                <rect x="3269.38" y="2767.09" width="648.232" height="648.232"/>
            </clipPath>
            <g clip-path="url(#_clip1)">
                <g transform="matrix(11.2137,0,0,11.2137,-36121.4,-16837.7)">
                    <path d="M3522.63,1791.34C3522.63,1791.34 3514.73,1777.35 3532.7,1763.63C3532.96,1763.43 3533.31,1763.39 3533.6,1763.54C3533.9,1763.68 3534.08,1763.98 3534.08,1764.31C3534.08,1766.37 3534.08,1769.93 3534.08,1772.95C3534.08,1773.37 3534.39,1773.73 3534.8,1773.8C3535.22,1773.86 3535.62,1773.62 3535.76,1773.22C3537.54,1767.8 3540.18,1759.8 3540.71,1758.2C3540.77,1758.01 3540.89,1757.86 3541.05,1757.75C3542.96,1756.51 3555.41,1748.61 3563.81,1748.54C3572.92,1748.45 3570.5,1757.32 3569.48,1761.36C3568.55,1765.02 3564.26,1773.34 3563.46,1774.86C3563.38,1775.02 3563.25,1775.15 3563.09,1775.23C3561.8,1775.89 3555.68,1779.05 3552.61,1780.63C3552.31,1780.79 3552.12,1781.11 3552.15,1781.45C3552.17,1781.79 3552.39,1782.09 3552.71,1782.2C3553.88,1782.62 3555.35,1783.15 3556.3,1783.49C3556.55,1783.58 3556.74,1783.77 3556.83,1784.02C3556.91,1784.27 3556.88,1784.54 3556.74,1784.76C3554.39,1788.29 3545,1800.78 3531.18,1797.68C3530.9,1797.62 3530.67,1797.41 3530.57,1797.14C3530.47,1796.87 3530.52,1796.56 3530.69,1796.33C3532.9,1793.47 3539.53,1785.04 3547.65,1775.79C3547.95,1775.45 3547.94,1774.92 3547.61,1774.6C3547.28,1774.28 3546.76,1774.27 3546.43,1774.58C3538.01,1782.39 3526.79,1793.41 3516.9,1805.26C3516.5,1805.74 3515.93,1806.04 3515.3,1806.09C3514.68,1806.14 3514.06,1805.94 3513.59,1805.53C3513.58,1805.53 3513.57,1805.52 3513.55,1805.51C3512.6,1804.68 3512.47,1803.25 3513.26,1802.27C3515.37,1799.68 3519.41,1794.79 3522.63,1791.34Z" style="fill:white;"/>
                </g>
            </g>
        </g>
    </g>
</svg>
