<?xml version="1.0" encoding="UTF-8" standalone="no"?>
<!DOCTYPE svg PUBLIC "-//W3C//DTD SVG 1.1//EN" "http://www.w3.org/Graphics/SVG/1.1/DTD/svg11.dtd">
<svg width="100%" height="100%" viewBox="0 0 800 800" version="1.1" xmlns="http://www.w3.org/2000/svg" xmlns:xlink="http://www.w3.org/1999/xlink" xml:space="preserve" xmlns:serif="http://www.serif.com/" style="fill-rule:evenodd;clip-rule:evenodd;stroke-linejoin:round;stroke-miterlimit:2;">
    <g transform="matrix(1.09163,0,0,1.09163,-35.1244,-35.1244)">
        <path d="M105,333.333C105,317.696 117.696,305 133.333,305C148.971,305 161.667,317.696 161.667,333.333L161.667,433.333C161.667,448.971 148.971,461.667 133.333,461.667C117.696,461.667 105,448.971 105,433.333L105,333.333Z" style="fill:white;"/>
    </g>
    <g transform="matrix(1.09163,0,0,1.09163,-35.1244,-35.1244)">
        <path d="M505,333.333C505,317.696 517.696,305 533.333,305C548.971,305 561.667,317.696 561.667,333.333L561.667,433.333C561.667,448.971 548.971,461.667 533.333,461.667C517.696,461.667 505,448.971 505,433.333L505,333.333Z" style="fill:white;"/>
    </g>
    <g transform="matrix(1.09163,0,0,1.09163,-35.1244,-35.1244)">
        <path d="M205,233.333C205,217.696 217.696,205 233.333,205C248.971,205 261.667,217.696 261.667,233.333L261.667,533.333C261.667,548.971 248.971,561.667 233.333,561.667C217.696,561.667 205,548.971 205,533.333L205,233.333Z" style="fill:white;"/>
    </g>
    <g transform="matrix(1.09163,0,0,1.09163,-35.1244,-35.1244)">
        <path d="M405,233.333C405,217.696 417.696,205 433.333,205C448.971,205 461.667,217.696 461.667,233.333L461.667,533.333C461.667,548.971 448.971,561.667 433.333,561.667C417.696,561.667 405,548.971 405,533.333L405,233.333Z" style="fill:white;"/>
    </g>
    <g transform="matrix(1.09163,0,0,1.09163,-35.1244,-35.1244)">
        <path d="M605,233.333C605,217.696 617.696,205 633.333,205C648.971,205 661.667,217.696 661.667,233.333L661.667,533.333C661.667,548.971 648.971,561.667 633.333,561.667C617.696,561.667 605,548.971 605,533.333L605,233.333Z" style="fill:white;"/>
    </g>
    <g transform="matrix(1.09163,0,0,1.09163,-35.1244,-35.1244)">
        <path d="M305,133.333C305,117.696 317.696,105 333.333,105C348.971,105 361.667,117.696 361.667,133.333L361.667,633.333C361.667,648.971 348.971,661.667 333.333,661.667C317.696,661.667 305,648.971 305,633.333L305,133.333Z" style="fill:white;"/>
    </g>
</svg>
