<?xml version="1.0" encoding="UTF-8" standalone="no"?>
<!DOCTYPE svg PUBLIC "-//W3C//DTD SVG 1.1//EN" "http://www.w3.org/Graphics/SVG/1.1/DTD/svg11.dtd">
<svg width="100%" height="100%" viewBox="0 0 200 200" version="1.1" xmlns="http://www.w3.org/2000/svg" xmlns:xlink="http://www.w3.org/1999/xlink" xml:space="preserve" xmlns:serif="http://www.serif.com/" style="fill-rule:evenodd;clip-rule:evenodd;stroke-linejoin:round;stroke-miterlimit:2;">
    <g transform="matrix(1,0,0,1,-2145.32,-1415.79)">
        <g transform="matrix(0.307342,0,0,0.307342,1140.5,565.348)">
            <rect id="画板2" x="3269.38" y="2767.09" width="648.232" height="648.232" style="fill:none;"/>
            <clipPath id="_clip1">
                <rect id="画板21" serif:id="画板2" x="3269.38" y="2767.09" width="648.232" height="648.232"/>
            </clipPath>
            <g clip-path="url(#_clip1)">
                <g transform="matrix(10.8073,0,0,10.8073,-18766.6,-14211.4)">
                    <circle cx="2068.97" cy="1601.01" r="24.548" style="fill:white;"/>
                </g>
                <g transform="matrix(1.29419,2.96172e-17,-2.96172e-17,1.29419,-960.068,-1732.31)">
                    <path d="M3518.47,3476.62C3656.69,3476.62 3768.91,3588.84 3768.91,3727.06C3768.91,3865.28 3656.69,3977.49 3518.47,3977.49C3380.25,3977.49 3268.03,3865.28 3268.03,3727.06C3268.03,3588.84 3380.25,3476.62 3518.47,3476.62ZM3549.11,3880.27L3549.11,3691.16L3628.35,3770.39L3671.68,3727.06L3518.47,3573.84L3365.25,3727.06L3408.59,3770.39L3487.83,3691.16L3487.83,3880.27L3549.11,3880.27Z" style="fill:rgb(58,123,71);"/>
                </g>
            </g>
        </g>
    </g>
</svg>
